<?xml version="1.0" encoding="UTF-8"?>
<svg width="124px" height="32px" viewBox="0 0 123 32" version="1.1" xmlns="http://www.w3.org/2000/svg" xmlns:xlink="http://www.w3.org/1999/xlink">
    <title>Artboard</title>
    <g id="Artboard" stroke="none" stroke-width="1" fill-rule="evenodd">

        <path d="M13.2429871,8.4266681 C17.1189742,8.4266681 20.4272722,9.77034259 22.7935264,11.9773774 C23.1096462,11.881102 23.3762845,11.7816719 23.5953149,11.6798628 C24.2666046,11.3678359 25.1481263,10.7278821 26.2398799,9.76000144 C26.0624389,11.4459129 25.8720845,12.6836026 25.6688167,13.4730707 C25.559488,13.8976908 25.3899016,14.4121697 25.1600575,15.0165075 C25.7691664,16.1235755 26.2094932,17.3338063 26.4591695,18.6182718 C27.3923872,23.2976796 25.7940575,25.3665872 22.0850109,26.5215437 C22.1134026,26.6597756 22.1352201,26.8094676 22.1507226,26.9695994 C22.2832333,28.3383546 21.5914175,30.5486513 20.7604293,30.5486513 C20.2140488,30.5486513 19.8588657,29.7871965 19.4775284,28.6759128 C19.3589143,29.9624924 18.7725321,31.4400014 18.0931178,31.4400014 C17.361629,31.4400014 16.9728346,30.0752013 16.4051792,28.3333347 C16.1167798,29.7024549 15.6835112,31.4400014 14.9167357,31.4400014 C14.137135,31.4400014 14.5647599,28.9856481 13.2504592,27.9460939 C6.58959719,28.3093424 0.986546528,25.8463296 0.986546528,18.7401951 C0.986546528,17.4305721 1.29691735,16.1511661 1.86584824,14.9639615 C1.76781349,14.7733634 1.676899,14.5842967 1.59184998,14.3968248 C1.14935714,13.4214465 0.618740486,11.9450093 3.56381591e-14,9.9675132 C1.58371146,11.1489182 2.79832537,11.8527317 3.64384174,12.0789538 C3.72140361,12.0997059 3.80194004,12.1180659 3.88545103,12.1340339 C6.10437378,9.90433223 9.42575803,8.4266681 13.2429871,8.4266681 Z M11.7004709,18.0452336 C9.45050461,18.0452336 7.62654653,19.8140299 7.62654653,21.9959508 C7.62654653,24.1778717 9.45050461,25.9466681 11.7004709,25.9466681 C13.9504372,25.9466681 15.7743953,24.1778717 15.7743953,21.9959508 C15.7743953,19.8801487 14.0593053,18.1528127 11.9038008,18.0500685 Z M17.4830813,22.9795195 C16.8024192,22.9795195 16.4430581,24.4311244 16.4430581,25.0823755 C16.4430581,25.5908294 16.6142553,25.8717171 16.8926541,25.9225808 C17.5685342,25.9855 17.3623642,25.0019136 17.6988617,25.0019136 C18.0576639,25.0019136 18.4776874,26.008109 18.829065,25.8717171 C19.2465861,25.623422 19.0871039,25.0823755 18.9428685,24.6550181 C18.4351658,23.5805143 18.1637433,22.9795195 17.4830813,22.9795195 Z M11.7935648,18.5866681 C13.733731,18.5866681 15.3065465,20.0969609 15.3065465,21.9600014 C15.3065465,23.823042 13.733731,25.3333348 11.7935648,25.3333348 C11.6741436,25.3333348 11.5561142,25.3276128 11.4397577,25.3164388 C13.2145504,25.1455348 14.5991842,23.7080395 14.5991842,21.9600014 C14.5991842,20.2116348 13.2140298,18.7739277 11.4400095,18.6035641 L11.6008173,18.5916595 L11.7935648,18.5866681 Z M21.9126378,17.8133348 C20.3622409,17.8133348 19.1053958,19.3667994 19.1053958,21.2830952 C19.1053958,23.1993909 20.3622409,24.7528555 21.9126378,24.7528555 C23.4630348,24.7528555 24.7198799,23.1993909 24.7198799,21.2830952 C24.7198799,19.3667994 23.4630348,17.8133348 21.9126378,17.8133348 Z M22.0049964,18.3733348 C23.2981988,18.3733348 24.3465465,19.6687242 24.3465465,21.2666681 C24.3465465,22.864612 23.2981988,24.1600014 22.0049964,24.1600014 C21.8855538,24.1600014 21.7682,24.1489508 21.6535681,24.1276319 C22.7798943,23.9174144 23.6430151,22.7165901 23.6430151,21.2666681 C23.6430151,19.8163133 22.7793789,18.6152049 21.6528933,18.4057043 C21.7675117,18.3844503 21.8852035,18.3733348 22.0049964,18.3733348 Z M22.5395661,7.22557856 C22.6295273,7.28402606 22.6550783,7.40423391 22.5967103,7.49415273 L22.1354744,8.20470988 C22.0888046,8.27660712 22.0025766,8.30734725 21.9239379,8.28689872 L21.8670524,8.26176474 C21.7771574,8.2033602 21.7516064,8.08315235 21.8099744,7.99323354 L22.2712102,7.28267639 C22.3295475,7.19280483 22.4496945,7.16724127 22.5395661,7.22557856 Z M4.08579857,7.01590819 L4.12912818,7.0605234 L4.55415099,7.66778915 C4.61562212,7.75561809 4.59428157,7.87664637 4.50647834,7.93815423 C4.43627373,7.98733391 4.34480874,7.98353459 4.27955594,7.93511672 L4.23622633,7.89050151 L3.81120351,7.28323577 C3.74973239,7.19540682 3.77107294,7.07437854 3.85887617,7.01287069 C3.92908077,6.96369101 4.02054576,6.96749033 4.08579857,7.01590819 Z M13.8869659,0.56 L14.3267165,4.28589897 L15.9665922,2.44274388 L16.0090599,7.03084865 L15.6840697,6.95876197 C14.7356589,6.74839326 13.875507,6.64354648 13.1040679,6.64357038 C12.3380152,6.64359411 11.620008,6.74702543 10.949239,6.95348406 L10.5876734,7.06477175 L10.8836486,1.32615843 L12.3837344,4.16206333 L13.8869659,0.56 Z M13.5979347,2.62682958 L12.4402833,5.40098111 L11.3132771,3.27041705 L11.1546215,6.34656035 L11.1883501,6.33818121 C11.7800233,6.19238229 12.4024034,6.11779469 13.055077,6.11422371 L13.1040843,6.11408904 C13.8111284,6.11406714 14.583088,6.19698903 15.4202625,6.36242532 L15.4736913,6.37307129 L15.4500746,3.81962853 L13.9391858,5.51784748 L13.5979347,2.62682958 Z M19.5981464,5.59694525 C19.7012206,5.62651444 19.7607932,5.7339863 19.7312609,5.83702344 L19.6728685,6.0407528 C19.6482657,6.1265909 19.569557,6.18226481 19.4843943,6.18135317 L19.4328595,6.17379193 C19.3298293,6.14423535 19.2702567,6.03676349 19.299789,5.93372636 L19.3581815,5.72999699 C19.3877047,5.62699128 19.4951407,5.56742198 19.5981464,5.59694525 Z M7.85191004,5.33156731 L7.87446116,5.37852347 L7.98353519,5.71436827 C8.01664464,5.81631406 7.96085834,5.92580085 7.85892122,5.95893697 C7.77400235,5.98654107 7.6838343,5.95242275 7.63696763,5.88131176 L7.61441651,5.8343556 L7.50534248,5.4985108 C7.47223302,5.39656501 7.52801932,5.28707822 7.62995644,5.2539421 C7.71487532,5.226338 7.80504337,5.26045632 7.85191004,5.33156731 Z" id="logo" fill="#FFFFFF" />

        <path d="M49.5429167,7.44 C49.6331944,7.44 49.7182639,7.46083333 49.798125,7.5025 C49.8779861,7.54416667 49.9179167,7.62402778 49.9179167,7.74208333 C49.9179167,7.75597222 49.9161806,7.76986111 49.9127083,7.78375 C49.9092361,7.79763889 49.9075,7.81152778 49.9075,7.82541667 L49.5325,11.44 C49.4838889,11.9261111 49.4335417,12.4191667 49.3814583,12.9191667 C49.329375,13.4191667 49.2790278,13.8983333 49.2304167,14.3566667 C49.1818056,14.815 49.1366667,15.2386111 49.095,15.6275 C49.0533333,16.0163889 49.0186111,16.3358333 48.9908333,16.5858333 L49.7095833,15.7941667 L50.87625,14.4295833 C51.0220833,14.2629167 51.1644444,14.09625 51.3033333,13.9295833 C51.4422222,13.7629167 51.5672222,13.6153472 51.6783333,13.486875 C51.7894444,13.3584028 51.8797222,13.2507639 51.9491667,13.1639583 C52.0186111,13.0771528 52.0602778,13.0268056 52.0741667,13.0129167 L56.2616667,12.72125 C56.2825,12.7143056 56.3050694,12.7108333 56.329375,12.7108333 L56.3970833,12.7108333 C56.5151389,12.7108333 56.5741667,12.7420833 56.5741667,12.8045833 C56.5741667,12.8531944 56.50125,12.9608333 56.3554167,13.1275 L53.095,16.7733333 C52.9491667,16.9330556 52.7772917,17.1188194 52.579375,17.330625 C52.3814583,17.5424306 52.1609722,17.7768056 51.9179167,18.03375 L53.43875,19.84625 L56.06375,22.6691667 C56.0845833,22.7038889 56.1158333,22.7299306 56.1575,22.7472917 C56.1991667,22.7646528 56.2390972,22.7802778 56.2772917,22.7941667 C56.3154861,22.8080556 56.3502083,22.8236806 56.3814583,22.8410417 C56.4127083,22.8584028 56.4283333,22.8844444 56.4283333,22.9191667 C56.4283333,22.9469444 56.423125,22.9677778 56.4127083,22.9816667 C56.4022917,22.9955556 56.3693056,23.0233333 56.31375,23.065 C56.25125,23.1136111 56.141875,23.1830556 55.985625,23.2733333 C55.829375,23.3636111 55.6470833,23.4643056 55.43875,23.5754167 C55.2304167,23.6865278 55.0081944,23.799375 54.7720833,23.9139583 C54.5359722,24.0285417 54.3068056,24.1327083 54.0845833,24.2264583 C53.8623611,24.3202083 53.6575,24.3965972 53.47,24.455625 C53.2825,24.5146528 53.1366667,24.5441667 53.0325,24.5441667 C52.9491667,24.5441667 52.8675694,24.5233333 52.7877083,24.4816667 C52.7078472,24.44 52.6193056,24.3636111 52.5220833,24.2525 C52.3901389,24.0997222 52.2252083,23.9000694 52.0272917,23.6535417 C51.829375,23.4070139 51.6158333,23.1361806 51.3866667,22.8410417 C51.1575,22.5459028 50.923125,22.2403472 50.6835417,21.924375 C50.4439583,21.6084028 50.2147917,21.3063194 49.9960417,21.018125 C49.7772917,20.7299306 49.579375,20.4695139 49.4022917,20.236875 C49.2252083,20.0042361 49.0880556,19.8184722 48.9908333,19.6795833 C48.9561111,19.7143056 48.9213889,19.7403472 48.8866667,19.7577083 C48.8519444,19.7750694 48.8189583,19.7976389 48.7877083,19.8254167 C48.7564583,19.8531944 48.7304167,19.8861806 48.7095833,19.924375 C48.68875,19.9625694 48.6783333,20.0163889 48.6783333,20.0858333 C48.6783333,20.1136111 48.6713889,20.1917361 48.6575,20.3202083 C48.6436111,20.4486806 48.6279861,20.6014583 48.610625,20.7785417 C48.5932639,20.955625 48.5741667,21.1448611 48.5533333,21.34625 C48.5325,21.5476389 48.5134028,21.736875 48.4960417,21.9139583 C48.4786806,22.0910417 48.4630556,22.2438194 48.4491667,22.3722917 C48.4352778,22.5007639 48.4283333,22.5788889 48.4283333,22.6066667 C48.4283333,22.6552778 48.4300694,22.6952083 48.4335417,22.7264583 C48.4370139,22.7577083 48.43875,22.7872222 48.43875,22.815 C48.43875,22.8913889 48.4127083,22.9486806 48.360625,22.986875 C48.3085417,23.0250694 48.1818056,23.0719444 47.9804167,23.1275 L45.25125,24.0129167 C45.1748611,24.0406944 45.0741667,24.0754167 44.9491667,24.1170833 C44.8241667,24.15875 44.7026389,24.1795833 44.5845833,24.1795833 C44.4873611,24.1795833 44.4022917,24.1552778 44.329375,24.1066667 C44.2564583,24.0580556 44.22,23.9677778 44.22,23.8358333 L45.5325,8.82541667 L45.5298958,8.77463542 L45.5220833,8.72645833 C45.5151389,8.69520833 45.5116667,8.66222222 45.5116667,8.6275 C45.5116667,8.565 45.5377083,8.50770833 45.5897917,8.455625 C45.641875,8.40354167 45.7616667,8.35319444 45.9491667,8.30458333 L48.87625,7.60666667 C48.9526389,7.59277778 49.0533333,7.56152778 49.1783333,7.51291667 C49.3033333,7.46430556 49.4248611,7.44 49.5429167,7.44 Z M74.0116667,7.63791667 C74.0880556,7.63791667 74.12625,7.67263889 74.12625,7.74208333 L72.7720833,22.6170833 L72.7720833,22.7941667 C72.7720833,22.8566667 72.7477778,22.9070139 72.6991667,22.9452083 C72.6505556,22.9834028 72.5359722,23.0268056 72.3554167,23.0754167 L69.62625,24.0754167 C69.5498611,24.1101389 69.4491667,24.1465972 69.3241667,24.1847917 C69.1991667,24.2229861 69.0776389,24.2420833 68.9595833,24.2420833 C68.8623611,24.2420833 68.7772917,24.2177778 68.704375,24.1691667 C68.6314583,24.1205556 68.595,24.0372222 68.595,23.9191667 L68.595,23.8566667 C68.6505556,23.1552778 68.704375,22.4695139 68.7564583,21.799375 C68.8085417,21.1292361 68.8640972,20.4365278 68.923125,19.72125 C68.9821528,19.0059722 69.0463889,18.2490278 69.1158333,17.4504167 C69.1852778,16.6518056 69.2616667,15.7768056 69.345,14.8254167 C69.4283333,13.8740278 69.4960417,12.9330556 69.548125,12.0025 C69.6002083,11.0719444 69.6575,10.1170833 69.72,9.13791667 C69.7338889,8.90875 69.7564583,8.75076389 69.7877083,8.66395833 C69.8189583,8.57715278 69.8970833,8.51986111 70.0220833,8.49208333 C70.6679167,8.37402778 71.3154861,8.25423611 71.9647917,8.13270833 C72.6140972,8.01118056 73.2651389,7.84972222 73.9179167,7.64833333 C73.93875,7.64138889 73.97,7.63791667 74.0116667,7.63791667 Z M39.47,8.34625 C39.5811111,8.34625 39.7477778,8.35840278 39.97,8.38270833 C40.1922222,8.40701389 40.4370139,8.44694444 40.704375,8.5025 C40.9717361,8.55805556 41.2443056,8.63444444 41.5220833,8.73166667 C41.7998611,8.82888889 42.0533333,8.95388889 42.2825,9.10666667 C42.3588889,9.16222222 42.4196528,9.21777778 42.4647917,9.27333333 C42.5099306,9.32888889 42.5394444,9.41569444 42.5533333,9.53375 C42.5880556,10.09625 42.6158333,10.6500694 42.6366667,11.1952083 C42.6575,11.7403472 42.6852778,12.3184722 42.72,12.9295833 C42.72,13.0476389 42.6956944,13.1257639 42.6470833,13.1639583 C42.5984722,13.2021528 42.5359722,13.22125 42.4595833,13.22125 C42.3831944,13.22125 42.3241667,13.2004167 42.2825,13.15875 C42.0811111,12.9573611 41.8727778,12.7594444 41.6575,12.565 C41.4422222,12.3705556 41.2165278,12.1986806 40.9804167,12.049375 C40.7443056,11.9000694 40.4925694,11.7802778 40.2252083,11.69 C39.9578472,11.5997222 39.6679167,11.5545833 39.3554167,11.5545833 C39.1679167,11.5545833 38.9804167,11.5702083 38.7929167,11.6014583 C38.6054167,11.6327083 38.4352778,11.69 38.2825,11.7733333 C38.1297222,11.8566667 38.0064583,11.97125 37.9127083,12.1170833 C37.8189583,12.2629167 37.7720833,12.4469444 37.7720833,12.6691667 C37.7720833,12.9052778 37.8015972,13.1101389 37.860625,13.28375 C37.9196528,13.4573611 38.0672222,13.6205556 38.3033333,13.7733333 L40.8033333,15.47125 C41.2616667,15.7976389 41.6331944,16.1222917 41.9179167,16.4452083 C42.2026389,16.768125 42.4248611,17.0893056 42.5845833,17.40875 C42.7443056,17.7281944 42.8536806,18.0424306 42.9127083,18.3514583 C42.9717361,18.6604861 43.00125,18.9643056 43.00125,19.2629167 C43.00125,19.7490278 42.9213889,20.2073611 42.7616667,20.6379167 C42.6019444,21.0684722 42.3831944,21.4660417 42.1054167,21.830625 C41.8276389,22.1952083 41.5029861,22.5215972 41.1314583,22.8097917 C40.7599306,23.0979861 40.3623611,23.3445139 39.93875,23.549375 C39.5151389,23.7542361 39.0759028,23.9104861 38.6210417,24.018125 C38.1661806,24.1257639 37.72,24.1795833 37.2825,24.1795833 C36.9422222,24.1795833 36.6071528,24.174375 36.2772917,24.1639583 C35.9474306,24.1535417 35.62625,24.1257639 35.31375,24.080625 C35.00125,24.0354861 34.6991667,23.9660417 34.4075,23.8722917 C34.1158333,23.7785417 33.8380556,23.6483333 33.5741667,23.4816667 L33.3970833,19.7629167 C33.3970833,19.7559722 33.3953472,19.7490278 33.391875,19.7420833 C33.3884028,19.7351389 33.3866667,19.7281944 33.3866667,19.72125 C33.3866667,19.6031944 33.4491667,19.5441667 33.5741667,19.5441667 C33.6366667,19.5441667 33.7061111,19.5754167 33.7825,19.6379167 C34.1575,19.9920833 34.5741667,20.2733333 35.0325,20.4816667 C35.4908333,20.69 35.9908333,20.7941667 36.5325,20.7941667 C36.6783333,20.7941667 36.845,20.7785417 37.0325,20.7472917 C37.22,20.7160417 37.3970833,20.6639583 37.56375,20.5910417 C37.7304167,20.518125 37.8710417,20.4226389 37.985625,20.3045833 C38.1002083,20.1865278 38.1575,20.0372222 38.1575,19.8566667 C38.1575,19.6552778 38.1088889,19.4747222 38.0116667,19.315 C37.9144444,19.1552778 37.7859722,19.0198611 37.62625,18.90875 C37.56375,18.8670833 37.47,18.7976389 37.345,18.7004167 C37.22,18.6031944 37.0776389,18.4920833 36.9179167,18.3670833 C36.7581944,18.2420833 36.5915278,18.1084028 36.4179167,17.9660417 C36.2443056,17.8236806 36.079375,17.6882639 35.923125,17.5597917 C35.766875,17.4313194 35.62625,17.315 35.50125,17.2108333 C35.37625,17.1066667 35.2825,17.0268056 35.22,16.97125 C34.8102778,16.6656944 34.485625,16.3566667 34.2460417,16.0441667 C34.0064583,15.7316667 33.8241667,15.4052778 33.6991667,15.065 C33.5741667,14.7247222 33.4943056,14.3722917 33.4595833,14.0077083 C33.4248611,13.643125 33.4075,13.2559722 33.4075,12.84625 C33.4075,12.2351389 33.5533333,11.6552778 33.845,11.1066667 C34.1366667,10.5580556 34.548125,10.080625 35.079375,9.674375 C35.610625,9.268125 36.2477778,8.94520833 36.9908333,8.705625 C37.7338889,8.46604167 38.5602778,8.34625 39.47,8.34625 Z M62.93875,12.0129167 C63.5984722,12.0129167 64.1974306,12.1361806 64.735625,12.3827083 C65.2738194,12.6292361 65.735625,12.9486806 66.1210417,13.3410417 C66.5064583,13.7334028 66.8033333,14.1726389 67.0116667,14.65875 C67.22,15.1448611 67.3241667,15.6309722 67.3241667,16.1170833 C67.3241667,16.5476389 67.1922222,16.9799306 66.9283333,17.4139583 C66.6644444,17.8479861 66.2946528,18.2386111 65.8189583,18.5858333 C65.3432639,18.9330556 64.7720833,19.2143056 64.1054167,19.4295833 C63.43875,19.6448611 62.7061111,19.7525 61.9075,19.7525 C61.4908333,19.7525 61.0533333,19.7108333 60.595,19.6275 C60.6227778,19.9261111 60.7095833,20.1830556 60.8554167,20.3983333 C61.00125,20.6136111 61.1852778,20.7906944 61.4075,20.9295833 C61.6297222,21.0684722 61.8814583,21.1709028 62.1627083,21.236875 C62.4439583,21.3028472 62.7338889,21.3358333 63.0325,21.3358333 C63.3658333,21.3358333 63.6870139,21.3063194 63.9960417,21.2472917 C64.3050694,21.1882639 64.6019444,21.1101389 64.8866667,21.0129167 C65.1713889,20.9156944 65.4456944,20.8080556 65.7095833,20.69 C65.9734722,20.5719444 66.2234722,20.4538889 66.4595833,20.3358333 C66.5220833,20.3219444 66.5759028,20.3097917 66.6210417,20.299375 C66.6661806,20.2889583 66.7095833,20.28375 66.75125,20.28375 C66.75125,20.28375 66.7495139,20.3393056 66.7460417,20.4504167 C66.7425694,20.5615278 66.7408333,20.7177778 66.7408333,20.9191667 C66.7408333,21.1205556 66.7390972,21.3636111 66.735625,21.6483333 C66.7321528,21.9330556 66.7269444,22.2490278 66.72,22.59625 C66.7408333,22.6309722 66.7547222,22.6656944 66.7616667,22.7004167 C66.7686111,22.7351389 66.7720833,22.7629167 66.7720833,22.78375 C66.7720833,22.8670833 66.6956944,22.9573611 66.5429167,23.0545833 C66.3901389,23.1518056 66.1904861,23.2525 65.9439583,23.3566667 C65.6974306,23.4608333 65.4161806,23.5615278 65.1002083,23.65875 C64.7842361,23.7559722 64.4630556,23.8445139 64.1366667,23.924375 C63.8102778,24.0042361 63.4943056,24.0667361 63.18875,24.111875 C62.8831944,24.1570139 62.6158333,24.1795833 62.3866667,24.1795833 C61.6366667,24.1795833 60.9092361,24.049375 60.204375,23.7889583 C59.4995139,23.5285417 58.8745139,23.1552778 58.329375,22.6691667 C57.7842361,22.1830556 57.3484722,21.5927778 57.0220833,20.8983333 C56.6956944,20.2038889 56.5325,19.4226389 56.5325,18.5545833 C56.5325,17.6448611 56.68875,16.7924306 57.00125,15.9972917 C57.31375,15.2021528 57.7529861,14.5094444 58.3189583,13.9191667 C58.8849306,13.3288889 59.5602778,12.8636111 60.345,12.5233333 C61.1297222,12.1830556 61.9943056,12.0129167 62.93875,12.0129167 Z M81.31375,12.0129167 C81.9734722,12.0129167 82.5724306,12.1361806 83.110625,12.3827083 C83.6488194,12.6292361 84.110625,12.9486806 84.4960417,13.3410417 C84.8814583,13.7334028 85.1783333,14.1726389 85.3866667,14.65875 C85.595,15.1448611 85.6991667,15.6309722 85.6991667,16.1170833 C85.6991667,16.5476389 85.5672222,16.9799306 85.3033333,17.4139583 C85.0394444,17.8479861 84.6696528,18.2386111 84.1939583,18.5858333 C83.7182639,18.9330556 83.1470833,19.2143056 82.4804167,19.4295833 C81.81375,19.6448611 81.0811111,19.7525 80.2825,19.7525 C79.8658333,19.7525 79.4283333,19.7108333 78.97,19.6275 C78.9977778,19.9261111 79.0845833,20.1830556 79.2304167,20.3983333 C79.37625,20.6136111 79.5602778,20.7906944 79.7825,20.9295833 C80.0047222,21.0684722 80.2564583,21.1709028 80.5377083,21.236875 C80.8189583,21.3028472 81.1088889,21.3358333 81.4075,21.3358333 C81.7408333,21.3358333 82.0620139,21.3063194 82.3710417,21.2472917 C82.6800694,21.1882639 82.9769444,21.1101389 83.2616667,21.0129167 C83.5463889,20.9156944 83.8206944,20.8080556 84.0845833,20.69 C84.3484722,20.5719444 84.5984722,20.4538889 84.8345833,20.3358333 C84.8970833,20.3219444 84.9509028,20.3097917 84.9960417,20.299375 C85.0411806,20.2889583 85.0845833,20.28375 85.12625,20.28375 C85.12625,20.28375 85.1245139,20.3393056 85.1210417,20.4504167 C85.1175694,20.5615278 85.1158333,20.7177778 85.1158333,20.9191667 C85.1158333,21.1205556 85.1140972,21.3636111 85.110625,21.6483333 C85.1071528,21.9330556 85.1019444,22.2490278 85.095,22.59625 C85.1158333,22.6309722 85.1297222,22.6656944 85.1366667,22.7004167 C85.1436111,22.7351389 85.1470833,22.7629167 85.1470833,22.78375 C85.1470833,22.8670833 85.0706944,22.9573611 84.9179167,23.0545833 C84.7651389,23.1518056 84.5654861,23.2525 84.3189583,23.3566667 C84.0724306,23.4608333 83.7911806,23.5615278 83.4752083,23.65875 C83.1592361,23.7559722 82.8380556,23.8445139 82.5116667,23.924375 C82.1852778,24.0042361 81.8693056,24.0667361 81.56375,24.111875 C81.2581944,24.1570139 80.9908333,24.1795833 80.7616667,24.1795833 C80.0116667,24.1795833 79.2842361,24.049375 78.579375,23.7889583 C77.8745139,23.5285417 77.2495139,23.1552778 76.704375,22.6691667 C76.1592361,22.1830556 75.7234722,21.5927778 75.3970833,20.8983333 C75.0706944,20.2038889 74.9075,19.4226389 74.9075,18.5545833 C74.9075,17.6448611 75.06375,16.7924306 75.37625,15.9972917 C75.68875,15.2021528 76.1279861,14.5094444 76.6939583,13.9191667 C77.2599306,13.3288889 77.9352778,12.8636111 78.72,12.5233333 C79.5047222,12.1830556 80.3693056,12.0129167 81.31375,12.0129167 Z M93.12625,8.96083333 C93.2095833,8.96083333 93.25125,8.98861111 93.25125,9.04416667 L93.25125,9.065 C93.2165278,9.44694444 93.1627083,9.97819444 93.0897917,10.65875 C93.016875,11.3393056 92.9352778,12.1101389 92.845,12.97125 L95.6366667,12.97125 C95.6922222,12.97125 95.7460417,12.9903472 95.798125,13.0285417 C95.8502083,13.0667361 95.87625,13.1309722 95.87625,13.22125 C95.87625,13.2559722 95.8345833,13.3809722 95.75125,13.59625 C95.6679167,13.8115278 95.5498611,14.0927778 95.3970833,14.44 L95.0220833,15.28375 C94.9734722,15.3879167 94.923125,15.4643056 94.8710417,15.5129167 C94.8189583,15.5615278 94.7130556,15.5927778 94.5533333,15.6066667 L92.6158333,15.6066667 C92.5186111,16.3358333 92.4265972,17.0632639 92.3397917,17.7889583 C92.2529861,18.5146528 92.1991667,19.1934722 92.1783333,19.8254167 C92.1783333,20.09625 92.1991667,20.3219444 92.2408333,20.5025 C92.2825,20.6830556 92.3432639,20.8254167 92.423125,20.9295833 C92.5029861,21.03375 92.5984722,21.1084028 92.7095833,21.1535417 C92.8206944,21.1986806 92.9456944,21.22125 93.0845833,21.22125 C93.3068056,21.22125 93.5498611,21.1882639 93.81375,21.1222917 C94.0776389,21.0563194 94.3415278,20.97125 94.6054167,20.8670833 C94.68875,20.8323611 94.7599306,20.8063194 94.8189583,20.7889583 C94.8779861,20.7715972 94.9283333,20.7629167 94.97,20.7629167 C95.0394444,20.7629167 95.0863194,20.7941667 95.110625,20.8566667 C95.1349306,20.9191667 95.1592361,21.0285417 95.1835417,21.1847917 C95.2078472,21.3410417 95.2443056,21.5511111 95.2929167,21.815 C95.3415278,22.0788889 95.4213889,22.4122222 95.5325,22.815 C95.5394444,22.8497222 95.5446528,22.8792361 95.548125,22.9035417 C95.5515972,22.9278472 95.5533333,22.9504167 95.5533333,22.97125 C95.5533333,23.0684722 95.516875,23.1379167 95.4439583,23.1795833 C95.3710417,23.22125 95.25125,23.2698611 95.0845833,23.3254167 C94.7998611,23.4226389 94.4995139,23.5215972 94.1835417,23.6222917 C93.8675694,23.7229861 93.5550694,23.815 93.2460417,23.8983333 C92.9370139,23.9816667 92.6401389,24.049375 92.3554167,24.1014583 C92.0706944,24.1535417 91.8206944,24.1795833 91.6054167,24.1795833 C90.4456944,24.1795833 89.6002083,23.8913889 89.0689583,23.315 C88.5377083,22.7386111 88.2720833,21.8601389 88.2720833,20.6795833 C88.2720833,20.4781944 88.2790278,20.2715972 88.2929167,20.0597917 C88.3068056,19.8479861 88.3241667,19.6275 88.345,19.3983333 C88.4144444,18.7038889 88.4752083,18.0459028 88.5272917,17.424375 C88.579375,16.8028472 88.6331944,16.2073611 88.68875,15.6379167 L87.595,15.6379167 C87.22,15.6379167 86.9491667,15.6222917 86.7825,15.5910417 C86.6158333,15.5597917 86.5325,15.4955556 86.5325,15.3983333 C86.5325,15.3705556 86.5672222,15.2959028 86.6366667,15.174375 C86.7061111,15.0528472 86.7946528,14.9070139 86.9022917,14.736875 C87.0099306,14.5667361 87.12625,14.3844444 87.25125,14.19 C87.37625,13.9955556 87.4960417,13.8132639 87.610625,13.643125 C87.7252083,13.4729861 87.8241667,13.3254167 87.9075,13.2004167 C87.9908333,13.0754167 88.0429167,12.9990278 88.06375,12.97125 L88.8033333,12.97125 C88.8658333,12.4434722 88.9161806,12.0007639 88.954375,11.643125 C88.9925694,11.2854861 89.0238194,10.9886111 89.048125,10.7525 C89.0724306,10.5163889 89.095,10.3340972 89.1158333,10.205625 C89.1366667,10.0771528 89.1592361,9.98166667 89.1835417,9.91916667 C89.2078472,9.85666667 89.2390972,9.81673611 89.2772917,9.799375 C89.3154861,9.78201389 89.3658333,9.76638889 89.4283333,9.7525 C89.7408333,9.69 90.0429167,9.63270833 90.3345833,9.580625 C90.62625,9.52854167 90.9179167,9.47472222 91.2095833,9.41916667 C91.50125,9.36361111 91.798125,9.299375 92.1002083,9.22645833 C92.4022917,9.15354167 92.7165278,9.06847222 93.0429167,8.97125 C93.06375,8.97125 93.0776389,8.96951389 93.0845833,8.96604167 C93.0915278,8.96256944 93.1054167,8.96083333 93.12625,8.96083333 Z M101.584583,11.8045833 C102.910972,11.8045833 104.039444,11.955625 104.97,12.2577083 C105.900556,12.5597917 106.6575,12.97125 107.240833,13.4920833 C107.824167,14.0129167 108.247778,14.6275 108.511667,15.3358333 C108.775556,16.0441667 108.9075,16.8045833 108.9075,17.6170833 C108.9075,18.6518056 108.733889,19.5754167 108.386667,20.3879167 C108.039444,21.2004167 107.565486,21.8879167 106.964792,22.4504167 C106.364097,23.0129167 105.662708,23.4417361 104.860625,23.736875 C104.058542,24.0320139 103.202639,24.1795833 102.292917,24.1795833 C101.31375,24.1795833 100.454375,24.0198611 99.7147917,23.7004167 C98.9752083,23.3809722 98.3554167,22.955625 97.8554167,22.424375 C97.3554167,21.893125 96.9804167,21.2820139 96.7304167,20.5910417 C96.4804167,19.9000694 96.3554167,19.1830556 96.3554167,18.44 C96.3554167,17.6969444 96.4769444,16.9903472 96.72,16.3202083 C96.9630556,15.6500694 97.3033333,15.049375 97.7408333,14.518125 C98.1783333,13.986875 98.7026389,13.5424306 99.31375,13.1847917 C99.9248611,12.8271528 100.598472,12.5858333 101.334583,12.4608333 C101.445694,12.4538889 101.50125,12.4295833 101.50125,12.3879167 C101.50125,12.3115278 101.492569,12.2403472 101.475208,12.174375 C101.457847,12.1084028 101.449167,12.0511111 101.449167,12.0025 C101.449167,11.9261111 101.463056,11.8740278 101.490833,11.84625 C101.518611,11.8184722 101.549861,11.8045833 101.584583,11.8045833 Z M115.261667,11.69 C115.317222,11.69 115.350208,11.6986806 115.360625,11.7160417 C115.371042,11.7334028 115.37625,11.7594444 115.37625,11.7941667 C115.37625,11.8080556 115.374514,11.8288889 115.371042,11.8566667 C115.367569,11.8844444 115.357153,11.9469444 115.339792,12.0441667 C115.322431,12.1413889 115.298125,12.2889583 115.266875,12.486875 C115.235625,12.6847917 115.192222,12.9608333 115.136667,13.315 C115.615833,13.0372222 116.065486,12.8132639 116.485625,12.643125 C116.905764,12.4729861 117.301597,12.3410417 117.673125,12.2472917 C118.044653,12.1535417 118.393611,12.0910417 118.72,12.0597917 C119.046389,12.0285417 119.351944,12.0129167 119.636667,12.0129167 C120.615833,12.0129167 121.327639,12.3097917 121.772083,12.9035417 C122.216528,13.4972917 122.43875,14.3879167 122.43875,15.5754167 C122.43875,15.7420833 122.435278,15.9139583 122.428333,16.0910417 C122.421389,16.268125 122.4075,16.4504167 122.386667,16.6379167 L121.9075,21.1170833 C121.872778,21.40875 121.851944,21.6778472 121.845,21.924375 C121.838056,22.1709028 121.834583,22.4573611 121.834583,22.78375 C121.834583,22.8393056 121.836319,22.8861806 121.839792,22.924375 C121.843264,22.9625694 121.845,22.9955556 121.845,23.0233333 C121.845,23.0858333 121.818958,23.1344444 121.766875,23.1691667 C121.714792,23.2038889 121.598472,23.2490278 121.417917,23.3045833 L118.886667,24.0129167 C118.810278,24.03375 118.709583,24.0667361 118.584583,24.111875 C118.459583,24.1570139 118.338056,24.1795833 118.22,24.1795833 C118.122778,24.1795833 118.037708,24.1552778 117.964792,24.1066667 C117.891875,24.0580556 117.855417,23.9747222 117.855417,23.8566667 L117.855417,23.7941667 C117.897083,23.4191667 117.931806,23.1014583 117.959583,22.8410417 C117.987361,22.580625 118.013403,22.3445139 118.037708,22.1327083 C118.062014,21.9209028 118.082847,21.7090972 118.100208,21.4972917 C118.117569,21.2854861 118.140139,21.0389583 118.167917,20.7577083 C118.18875,20.5467708 118.212513,20.3065365 118.239206,20.0370052 L118.266875,19.7577083 C118.305069,19.3722917 118.351944,18.8913889 118.4075,18.315 C118.442222,17.9608333 118.473472,17.5997222 118.50125,17.2316667 C118.529028,16.8636111 118.542917,16.5233333 118.542917,16.2108333 C118.542917,16.0025 118.527292,15.8097917 118.496042,15.6327083 C118.464792,15.455625 118.409236,15.3028472 118.329375,15.174375 C118.249514,15.0459028 118.140139,14.9469444 118.00125,14.8775 C117.862361,14.8080556 117.685278,14.7733333 117.47,14.7733333 C117.310278,14.7733333 117.089792,14.8080556 116.808542,14.8775 C116.527292,14.9469444 116.247778,15.0615278 115.97,15.22125 C115.692222,15.3809722 115.445694,15.5910417 115.230417,15.8514583 C115.015139,16.111875 114.893611,16.4330556 114.865833,16.815 C114.824167,17.3288889 114.785972,17.768125 114.75125,18.1327083 C114.716528,18.4972917 114.685278,18.8063194 114.6575,19.0597917 C114.629722,19.3132639 114.607153,19.5198611 114.589792,19.6795833 C114.572431,19.8393056 114.560278,19.9747222 114.553333,20.0858333 C114.546389,20.1136111 114.535972,20.19 114.522083,20.315 C114.508194,20.44 114.492569,20.5893056 114.475208,20.7629167 C114.457847,20.9365278 114.440486,21.1205556 114.423125,21.315 C114.405764,21.5094444 114.388403,21.6934722 114.371042,21.8670833 C114.353681,22.0406944 114.339792,22.19 114.329375,22.315 C114.318958,22.44 114.31375,22.5163889 114.31375,22.5441667 C114.31375,22.5997222 114.315486,22.6465972 114.318958,22.6847917 C114.322431,22.7229861 114.324167,22.7594444 114.324167,22.7941667 C114.324167,22.8497222 114.298125,22.8965972 114.246042,22.9347917 C114.193958,22.9729861 114.077639,23.0163889 113.897083,23.065 L111.136667,24.0129167 C111.060278,24.0406944 110.959583,24.0754167 110.834583,24.1170833 C110.709583,24.15875 110.588056,24.1795833 110.47,24.1795833 C110.372778,24.1795833 110.287708,24.1552778 110.214792,24.1066667 C110.141875,24.0580556 110.105417,23.9747222 110.105417,23.8566667 L111.053333,13.2108333 C111.074167,12.9816667 111.100208,12.8236806 111.131458,12.736875 C111.162708,12.6500694 111.240833,12.5927778 111.365833,12.565 C111.997778,12.44 112.647083,12.3132639 113.31375,12.1847917 C113.980417,12.0563194 114.629722,11.8913889 115.261667,11.69 Z M104.88526,14.6610455 C104.375253,14.3666543 103.723162,14.5413717 103.428663,15.0513173 L102.484151,16.6862289 L100.84943,15.7424209 C100.339414,15.4480443 99.6873276,15.6227802 99.3928438,16.1327341 L99.3330826,16.2528861 C99.1273045,16.7409835 99.312419,17.3173553 99.7830749,17.5890137 L101.417575,18.5321782 L100.473991,20.1675492 L100.414227,20.2876995 C100.208435,20.7757911 100.393533,21.3521681 100.864181,21.6238399 C101.374189,21.918231 102.02628,21.7435137 102.320778,21.2335681 L103.26449,19.5984952 L104.900012,20.5424645 C105.410028,20.8368411 106.062114,20.6621052 106.35671,20.1519571 C106.651007,19.6420799 106.476244,18.9901683 105.966367,18.6958717 L104.330807,17.75158 L105.27545,16.1173362 L105.335215,15.9971858 C105.541007,15.5090943 105.355909,14.9327172 104.88526,14.6610455 Z M63.477717,13.682454 C63.1759388,13.5082589 62.7900879,13.6116415 62.6158293,13.913383 L62.0569458,14.8802114 L61.0896627,14.3223181 C60.7878796,14.1481316 60.4020316,14.2515251 60.2277816,14.5532716 L60.1837207,14.6461225 C60.0762408,14.9301204 60.1871555,15.2582462 60.4586865,15.4149715 L61.4252406,15.9729427 L60.8675109,16.9407249 L60.8234473,17.0335745 C60.7159594,17.3175695 60.8268648,17.6456984 61.0983913,17.8024313 C61.4001695,17.9766264 61.7860204,17.8732439 61.960279,17.5715023 L62.518679,16.6034231 L63.4864456,17.1625672 C63.7882287,17.3367538 64.1740767,17.2333602 64.348393,16.9314989 C64.5225322,16.6297978 64.4191229,16.2440531 64.1174218,16.0699139 L63.1494182,15.5109507 L63.7085974,14.5441604 L63.7526609,14.4513108 C63.8601488,14.1673159 63.7492435,13.839187 63.477717,13.682454 Z M80.1009791,13.9714214 C79.876971,13.7045237 79.4790298,13.6697141 79.212085,13.893666 L79.1389245,13.9658476 C78.9407934,14.1959581 78.9327935,14.5422305 79.1343459,14.7823731 L79.8517724,15.6372756 L78.9966768,16.3559386 L78.9235142,16.4281181 C78.7253766,16.658223 78.7173668,17.0044952 78.9189125,17.2446435 C79.1429129,17.5115476 79.5408531,17.5463685 79.8078043,17.3224242 L80.6636313,16.6037113 L81.3817959,17.4601306 C81.6058039,17.7270283 82.0037451,17.761838 82.2707916,17.5378008 C82.5376167,17.3138536 82.5723762,16.9160041 82.348429,16.6491789 L81.6299799,15.7928486 L82.4860982,15.0756135 L82.5592608,15.003434 C82.7573983,14.7733291 82.7654081,14.4270569 82.5638625,14.1869085 C82.339862,13.9200045 81.9419218,13.8851835 81.6749706,14.1091279 L80.8191171,14.8265 Z" id="logo-text" fill="#FFFFFF" fill-rule="nonzero" />
        
    </g>
</svg>